<mxfile host="app.diagrams.net" agent="Mozilla/5.0 (X11; Ubuntu; Linux x86_64; rv:131.0) Gecko/20100101 Firefox/131.0" version="24.8.3">
  <diagram id="R2lEEEUBdFMjLlhIrx00" name="Page-1">
    <mxGraphModel dx="1436" dy="837" grid="1" gridSize="10" guides="1" tooltips="1" connect="1" arrows="1" fold="1" page="1" pageScale="1" pageWidth="850" pageHeight="1100" math="0" shadow="0" extFonts="Permanent Marker^https://fonts.googleapis.com/css?family=Permanent+Marker">
      <root>
        <mxCell id="0" />
        <mxCell id="1" parent="0" />
        <mxCell id="XczX_esiiE8wpk_EP03i-1" value="Students" style="rounded=0;whiteSpace=wrap;html=1;direction=east;" vertex="1" parent="1">
          <mxGeometry x="109" y="174" width="120" height="40" as="geometry" />
        </mxCell>
        <mxCell id="XczX_esiiE8wpk_EP03i-5" value="St_id" style="ellipse;whiteSpace=wrap;html=1;" vertex="1" parent="1">
          <mxGeometry x="30" y="113" width="70" height="30" as="geometry" />
        </mxCell>
        <mxCell id="XczX_esiiE8wpk_EP03i-9" value="St_name" style="ellipse;whiteSpace=wrap;html=1;" vertex="1" parent="1">
          <mxGeometry x="99" y="80" width="70" height="30" as="geometry" />
        </mxCell>
        <mxCell id="XczX_esiiE8wpk_EP03i-13" value="FName" style="ellipse;whiteSpace=wrap;html=1;" vertex="1" parent="1">
          <mxGeometry x="49" y="20" width="70" height="30" as="geometry" />
        </mxCell>
        <mxCell id="XczX_esiiE8wpk_EP03i-14" value="LName" style="ellipse;whiteSpace=wrap;html=1;" vertex="1" parent="1">
          <mxGeometry x="135" y="20" width="70" height="30" as="geometry" />
        </mxCell>
        <mxCell id="XczX_esiiE8wpk_EP03i-15" value="St_age" style="ellipse;whiteSpace=wrap;html=1;" vertex="1" parent="1">
          <mxGeometry x="189" y="80" width="70" height="30" as="geometry" />
        </mxCell>
        <mxCell id="XczX_esiiE8wpk_EP03i-16" value="St_address" style="ellipse;whiteSpace=wrap;html=1;" vertex="1" parent="1">
          <mxGeometry x="243" y="116" width="70" height="30" as="geometry" />
        </mxCell>
        <mxCell id="XczX_esiiE8wpk_EP03i-19" value="" style="endArrow=none;html=1;rounded=0;entryX=0.257;entryY=0.9;entryDx=0;entryDy=0;entryPerimeter=0;exitX=1;exitY=0;exitDx=0;exitDy=0;" edge="1" parent="1" source="XczX_esiiE8wpk_EP03i-1" target="XczX_esiiE8wpk_EP03i-16">
          <mxGeometry width="50" height="50" relative="1" as="geometry">
            <mxPoint x="230" y="170" as="sourcePoint" />
            <mxPoint x="260" y="149" as="targetPoint" />
          </mxGeometry>
        </mxCell>
        <mxCell id="XczX_esiiE8wpk_EP03i-20" value="" style="endArrow=none;html=1;rounded=0;entryX=0.5;entryY=1;entryDx=0;entryDy=0;exitX=0.75;exitY=0;exitDx=0;exitDy=0;" edge="1" parent="1" source="XczX_esiiE8wpk_EP03i-1" target="XczX_esiiE8wpk_EP03i-15">
          <mxGeometry width="50" height="50" relative="1" as="geometry">
            <mxPoint x="239" y="184" as="sourcePoint" />
            <mxPoint x="271" y="153" as="targetPoint" />
          </mxGeometry>
        </mxCell>
        <mxCell id="XczX_esiiE8wpk_EP03i-22" value="" style="endArrow=none;html=1;rounded=0;entryX=0.5;entryY=1;entryDx=0;entryDy=0;exitX=0.75;exitY=0;exitDx=0;exitDy=0;" edge="1" parent="1" target="XczX_esiiE8wpk_EP03i-9">
          <mxGeometry width="50" height="50" relative="1" as="geometry">
            <mxPoint x="145" y="174" as="sourcePoint" />
            <mxPoint x="170" y="110" as="targetPoint" />
          </mxGeometry>
        </mxCell>
        <mxCell id="XczX_esiiE8wpk_EP03i-24" value="" style="endArrow=none;html=1;rounded=0;entryX=0.5;entryY=1;entryDx=0;entryDy=0;exitX=0;exitY=0;exitDx=0;exitDy=0;" edge="1" parent="1" source="XczX_esiiE8wpk_EP03i-1" target="XczX_esiiE8wpk_EP03i-5">
          <mxGeometry width="50" height="50" relative="1" as="geometry">
            <mxPoint x="81" y="194" as="sourcePoint" />
            <mxPoint x="70" y="130" as="targetPoint" />
          </mxGeometry>
        </mxCell>
        <mxCell id="XczX_esiiE8wpk_EP03i-25" value="" style="endArrow=none;html=1;rounded=0;entryX=0.5;entryY=1;entryDx=0;entryDy=0;exitX=0;exitY=0;exitDx=0;exitDy=0;" edge="1" parent="1" source="XczX_esiiE8wpk_EP03i-9" target="XczX_esiiE8wpk_EP03i-13">
          <mxGeometry width="50" height="50" relative="1" as="geometry">
            <mxPoint x="155" y="184" as="sourcePoint" />
            <mxPoint x="144" y="120" as="targetPoint" />
          </mxGeometry>
        </mxCell>
        <mxCell id="XczX_esiiE8wpk_EP03i-27" value="" style="endArrow=none;html=1;rounded=0;entryX=0.5;entryY=1;entryDx=0;entryDy=0;exitX=0.668;exitY=-0.027;exitDx=0;exitDy=0;exitPerimeter=0;" edge="1" parent="1" source="XczX_esiiE8wpk_EP03i-9" target="XczX_esiiE8wpk_EP03i-14">
          <mxGeometry width="50" height="50" relative="1" as="geometry">
            <mxPoint x="119" y="95" as="sourcePoint" />
            <mxPoint x="115" y="60" as="targetPoint" />
          </mxGeometry>
        </mxCell>
        <mxCell id="XczX_esiiE8wpk_EP03i-28" value="Departments" style="rounded=0;whiteSpace=wrap;html=1;direction=east;" vertex="1" parent="1">
          <mxGeometry x="529" y="185" width="120" height="40" as="geometry" />
        </mxCell>
        <mxCell id="XczX_esiiE8wpk_EP03i-30" value="Dept_id" style="ellipse;whiteSpace=wrap;html=1;" vertex="1" parent="1">
          <mxGeometry x="519" y="91" width="70" height="30" as="geometry" />
        </mxCell>
        <mxCell id="XczX_esiiE8wpk_EP03i-33" value="Dept_name" style="ellipse;whiteSpace=wrap;html=1;" vertex="1" parent="1">
          <mxGeometry x="609" y="91" width="70" height="30" as="geometry" />
        </mxCell>
        <mxCell id="XczX_esiiE8wpk_EP03i-36" value="" style="endArrow=none;html=1;rounded=0;entryX=0.5;entryY=1;entryDx=0;entryDy=0;exitX=0.75;exitY=0;exitDx=0;exitDy=0;" edge="1" source="XczX_esiiE8wpk_EP03i-28" target="XczX_esiiE8wpk_EP03i-33" parent="1">
          <mxGeometry width="50" height="50" relative="1" as="geometry">
            <mxPoint x="659" y="195" as="sourcePoint" />
            <mxPoint x="691" y="164" as="targetPoint" />
          </mxGeometry>
        </mxCell>
        <mxCell id="XczX_esiiE8wpk_EP03i-37" value="" style="endArrow=none;html=1;rounded=0;entryX=0.5;entryY=1;entryDx=0;entryDy=0;exitX=0.75;exitY=0;exitDx=0;exitDy=0;" edge="1" target="XczX_esiiE8wpk_EP03i-30" parent="1">
          <mxGeometry width="50" height="50" relative="1" as="geometry">
            <mxPoint x="565" y="185" as="sourcePoint" />
            <mxPoint x="590" y="121" as="targetPoint" />
          </mxGeometry>
        </mxCell>
        <mxCell id="XczX_esiiE8wpk_EP03i-43" value="" style="endArrow=none;html=1;rounded=0;" edge="1" parent="1">
          <mxGeometry width="50" height="50" relative="1" as="geometry">
            <mxPoint x="50" y="134.79" as="sourcePoint" />
            <mxPoint x="80" y="134.79" as="targetPoint" />
          </mxGeometry>
        </mxCell>
        <mxCell id="XczX_esiiE8wpk_EP03i-44" value="" style="endArrow=none;html=1;rounded=0;" edge="1" parent="1">
          <mxGeometry width="50" height="50" relative="1" as="geometry">
            <mxPoint x="540" y="114.78999999999999" as="sourcePoint" />
            <mxPoint x="570" y="114.78999999999999" as="targetPoint" />
          </mxGeometry>
        </mxCell>
        <mxCell id="XczX_esiiE8wpk_EP03i-54" value="Courses" style="rounded=0;whiteSpace=wrap;html=1;direction=east;" vertex="1" parent="1">
          <mxGeometry x="119" y="510" width="120" height="40" as="geometry" />
        </mxCell>
        <mxCell id="XczX_esiiE8wpk_EP03i-55" value="Crs_name" style="ellipse;whiteSpace=wrap;html=1;" vertex="1" parent="1">
          <mxGeometry x="109" y="416" width="70" height="30" as="geometry" />
        </mxCell>
        <mxCell id="XczX_esiiE8wpk_EP03i-56" value="Crs_duration" style="ellipse;whiteSpace=wrap;html=1;" vertex="1" parent="1">
          <mxGeometry x="199" y="416" width="81" height="30" as="geometry" />
        </mxCell>
        <mxCell id="XczX_esiiE8wpk_EP03i-57" value="Crs_description" style="ellipse;whiteSpace=wrap;html=1;" vertex="1" parent="1">
          <mxGeometry x="261" y="452" width="97" height="30" as="geometry" />
        </mxCell>
        <mxCell id="XczX_esiiE8wpk_EP03i-58" value="" style="endArrow=none;html=1;rounded=0;entryX=0.257;entryY=0.9;entryDx=0;entryDy=0;entryPerimeter=0;exitX=1;exitY=0;exitDx=0;exitDy=0;" edge="1" source="XczX_esiiE8wpk_EP03i-54" target="XczX_esiiE8wpk_EP03i-57" parent="1">
          <mxGeometry width="50" height="50" relative="1" as="geometry">
            <mxPoint x="240" y="506" as="sourcePoint" />
            <mxPoint x="270" y="485" as="targetPoint" />
          </mxGeometry>
        </mxCell>
        <mxCell id="XczX_esiiE8wpk_EP03i-59" value="" style="endArrow=none;html=1;rounded=0;entryX=0.5;entryY=1;entryDx=0;entryDy=0;exitX=0.75;exitY=0;exitDx=0;exitDy=0;" edge="1" source="XczX_esiiE8wpk_EP03i-54" target="XczX_esiiE8wpk_EP03i-56" parent="1">
          <mxGeometry width="50" height="50" relative="1" as="geometry">
            <mxPoint x="249" y="520" as="sourcePoint" />
            <mxPoint x="281" y="489" as="targetPoint" />
          </mxGeometry>
        </mxCell>
        <mxCell id="XczX_esiiE8wpk_EP03i-60" value="" style="endArrow=none;html=1;rounded=0;entryX=0.5;entryY=1;entryDx=0;entryDy=0;exitX=0.75;exitY=0;exitDx=0;exitDy=0;" edge="1" target="XczX_esiiE8wpk_EP03i-55" parent="1">
          <mxGeometry width="50" height="50" relative="1" as="geometry">
            <mxPoint x="155" y="510" as="sourcePoint" />
            <mxPoint x="180" y="446" as="targetPoint" />
          </mxGeometry>
        </mxCell>
        <mxCell id="XczX_esiiE8wpk_EP03i-61" value="" style="endArrow=none;html=1;rounded=0;entryX=0.5;entryY=1;entryDx=0;entryDy=0;exitX=0;exitY=0;exitDx=0;exitDy=0;" edge="1" source="XczX_esiiE8wpk_EP03i-54" target="XczX_esiiE8wpk_EP03i-63" parent="1">
          <mxGeometry width="50" height="50" relative="1" as="geometry">
            <mxPoint x="91" y="530" as="sourcePoint" />
            <mxPoint x="80" y="466" as="targetPoint" />
          </mxGeometry>
        </mxCell>
        <mxCell id="XczX_esiiE8wpk_EP03i-62" value="" style="endArrow=none;html=1;rounded=0;" edge="1" parent="1">
          <mxGeometry width="50" height="50" relative="1" as="geometry">
            <mxPoint x="60" y="470.78999999999996" as="sourcePoint" />
            <mxPoint x="90" y="470.78999999999996" as="targetPoint" />
          </mxGeometry>
        </mxCell>
        <mxCell id="XczX_esiiE8wpk_EP03i-63" value="Crs_id" style="ellipse;whiteSpace=wrap;html=1;" vertex="1" parent="1">
          <mxGeometry x="40" y="449" width="70" height="30" as="geometry" />
        </mxCell>
        <mxCell id="XczX_esiiE8wpk_EP03i-64" value="" style="endArrow=none;html=1;rounded=0;" edge="1" parent="1">
          <mxGeometry width="50" height="50" relative="1" as="geometry">
            <mxPoint x="60" y="470" as="sourcePoint" />
            <mxPoint x="90" y="470" as="targetPoint" />
          </mxGeometry>
        </mxCell>
        <mxCell id="XczX_esiiE8wpk_EP03i-65" value="Instructors" style="rounded=0;whiteSpace=wrap;html=1;direction=east;" vertex="1" parent="1">
          <mxGeometry x="568" y="510" width="120" height="40" as="geometry" />
        </mxCell>
        <mxCell id="XczX_esiiE8wpk_EP03i-66" value="Ins_name" style="ellipse;whiteSpace=wrap;html=1;" vertex="1" parent="1">
          <mxGeometry x="539" y="610" width="70" height="30" as="geometry" />
        </mxCell>
        <mxCell id="XczX_esiiE8wpk_EP03i-67" value="Ins_salary" style="ellipse;whiteSpace=wrap;html=1;" vertex="1" parent="1">
          <mxGeometry x="647" y="608" width="81" height="30" as="geometry" />
        </mxCell>
        <mxCell id="XczX_esiiE8wpk_EP03i-68" value="Ins_hourRate" style="ellipse;whiteSpace=wrap;html=1;" vertex="1" parent="1">
          <mxGeometry x="693" y="452" width="97" height="30" as="geometry" />
        </mxCell>
        <mxCell id="XczX_esiiE8wpk_EP03i-69" value="" style="endArrow=none;html=1;rounded=0;entryX=0.257;entryY=0.9;entryDx=0;entryDy=0;entryPerimeter=0;exitX=1;exitY=0;exitDx=0;exitDy=0;" edge="1" target="XczX_esiiE8wpk_EP03i-68" parent="1">
          <mxGeometry width="50" height="50" relative="1" as="geometry">
            <mxPoint x="678.9999999999998" y="510" as="sourcePoint" />
            <mxPoint x="710" y="485" as="targetPoint" />
          </mxGeometry>
        </mxCell>
        <mxCell id="XczX_esiiE8wpk_EP03i-70" value="" style="endArrow=none;html=1;rounded=0;entryX=0.426;entryY=-0.063;entryDx=0;entryDy=0;exitX=0.789;exitY=1.05;exitDx=0;exitDy=0;exitPerimeter=0;entryPerimeter=0;" edge="1" target="XczX_esiiE8wpk_EP03i-67" parent="1">
          <mxGeometry width="50" height="50" relative="1" as="geometry">
            <mxPoint x="662.6800000000001" y="552" as="sourcePoint" />
            <mxPoint x="710.0320000000002" y="660" as="targetPoint" />
          </mxGeometry>
        </mxCell>
        <mxCell id="XczX_esiiE8wpk_EP03i-71" value="" style="endArrow=none;html=1;rounded=0;entryX=0.5;entryY=1;entryDx=0;entryDy=0;" edge="1" target="XczX_esiiE8wpk_EP03i-66" parent="1">
          <mxGeometry width="50" height="50" relative="1" as="geometry">
            <mxPoint x="580" y="550" as="sourcePoint" />
            <mxPoint x="610" y="446" as="targetPoint" />
          </mxGeometry>
        </mxCell>
        <mxCell id="XczX_esiiE8wpk_EP03i-72" value="" style="endArrow=none;html=1;rounded=0;entryX=1;entryY=0.5;entryDx=0;entryDy=0;exitX=0;exitY=0.5;exitDx=0;exitDy=0;" edge="1" source="XczX_esiiE8wpk_EP03i-65" target="XczX_esiiE8wpk_EP03i-74" parent="1">
          <mxGeometry width="50" height="50" relative="1" as="geometry">
            <mxPoint x="567.9999999999998" y="521" as="sourcePoint" />
            <mxPoint x="529" y="477" as="targetPoint" />
          </mxGeometry>
        </mxCell>
        <mxCell id="XczX_esiiE8wpk_EP03i-74" value="Ins_id" style="ellipse;whiteSpace=wrap;html=1;" vertex="1" parent="1">
          <mxGeometry x="466" y="514" width="70" height="30" as="geometry" />
        </mxCell>
        <mxCell id="XczX_esiiE8wpk_EP03i-75" value="" style="endArrow=none;html=1;rounded=0;" edge="1" parent="1">
          <mxGeometry width="50" height="50" relative="1" as="geometry">
            <mxPoint x="486" y="536" as="sourcePoint" />
            <mxPoint x="516" y="536" as="targetPoint" />
          </mxGeometry>
        </mxCell>
        <mxCell id="XczX_esiiE8wpk_EP03i-76" value="Ins_bouns" style="ellipse;whiteSpace=wrap;html=1;" vertex="1" parent="1">
          <mxGeometry x="730" y="490" width="97" height="30" as="geometry" />
        </mxCell>
        <mxCell id="XczX_esiiE8wpk_EP03i-77" value="" style="endArrow=none;html=1;rounded=0;entryX=0;entryY=0.5;entryDx=0;entryDy=0;exitX=1;exitY=0;exitDx=0;exitDy=0;" edge="1" parent="1" target="XczX_esiiE8wpk_EP03i-76">
          <mxGeometry width="50" height="50" relative="1" as="geometry">
            <mxPoint x="685.9999999999998" y="528" as="sourcePoint" />
            <mxPoint x="717" y="503" as="targetPoint" />
          </mxGeometry>
        </mxCell>
        <mxCell id="XczX_esiiE8wpk_EP03i-78" value="Ins_address" style="ellipse;whiteSpace=wrap;html=1;" vertex="1" parent="1">
          <mxGeometry x="730" y="530" width="97" height="30" as="geometry" />
        </mxCell>
        <mxCell id="XczX_esiiE8wpk_EP03i-79" value="" style="endArrow=none;html=1;rounded=0;entryX=0;entryY=0.5;entryDx=0;entryDy=0;exitX=1;exitY=0;exitDx=0;exitDy=0;" edge="1" target="XczX_esiiE8wpk_EP03i-78" parent="1">
          <mxGeometry width="50" height="50" relative="1" as="geometry">
            <mxPoint x="685.9999999999998" y="550" as="sourcePoint" />
            <mxPoint x="717" y="525" as="targetPoint" />
          </mxGeometry>
        </mxCell>
        <mxCell id="XczX_esiiE8wpk_EP03i-80" value="Topics" style="rounded=0;whiteSpace=wrap;html=1;direction=east;" vertex="1" parent="1">
          <mxGeometry x="120" y="774" width="120" height="40" as="geometry" />
        </mxCell>
        <mxCell id="XczX_esiiE8wpk_EP03i-81" value="Top_id" style="ellipse;whiteSpace=wrap;html=1;" vertex="1" parent="1">
          <mxGeometry x="20" y="700" width="70" height="30" as="geometry" />
        </mxCell>
        <mxCell id="XczX_esiiE8wpk_EP03i-82" value="Top_name" style="ellipse;whiteSpace=wrap;html=1;" vertex="1" parent="1">
          <mxGeometry x="261" y="700" width="81" height="30" as="geometry" />
        </mxCell>
        <mxCell id="XczX_esiiE8wpk_EP03i-83" value="" style="endArrow=none;html=1;rounded=0;entryX=0.5;entryY=1;entryDx=0;entryDy=0;exitX=0.75;exitY=0;exitDx=0;exitDy=0;" edge="1" parent="1" source="XczX_esiiE8wpk_EP03i-80" target="XczX_esiiE8wpk_EP03i-82">
          <mxGeometry width="50" height="50" relative="1" as="geometry">
            <mxPoint x="250" y="784" as="sourcePoint" />
            <mxPoint x="282" y="753" as="targetPoint" />
          </mxGeometry>
        </mxCell>
        <mxCell id="XczX_esiiE8wpk_EP03i-84" value="" style="endArrow=none;html=1;rounded=0;entryX=0.5;entryY=1;entryDx=0;entryDy=0;exitX=0.75;exitY=0;exitDx=0;exitDy=0;" edge="1" parent="1" target="XczX_esiiE8wpk_EP03i-81">
          <mxGeometry width="50" height="50" relative="1" as="geometry">
            <mxPoint x="156" y="774" as="sourcePoint" />
            <mxPoint x="181" y="710" as="targetPoint" />
          </mxGeometry>
        </mxCell>
        <mxCell id="XczX_esiiE8wpk_EP03i-88" value="" style="endArrow=none;html=1;rounded=0;" edge="1" parent="1">
          <mxGeometry width="50" height="50" relative="1" as="geometry">
            <mxPoint x="40" y="722" as="sourcePoint" />
            <mxPoint x="70" y="722" as="targetPoint" />
          </mxGeometry>
        </mxCell>
        <mxCell id="XczX_esiiE8wpk_EP03i-89" value="Relationship" style="shape=rhombus;perimeter=rhombusPerimeter;whiteSpace=wrap;html=1;align=center;rounded=0;" vertex="1" parent="1">
          <mxGeometry x="119" y="280" width="120" height="60" as="geometry" />
        </mxCell>
        <mxCell id="XczX_esiiE8wpk_EP03i-92" value="" style="endArrow=none;html=1;rounded=0;" edge="1" parent="1">
          <mxGeometry width="50" height="50" relative="1" as="geometry">
            <mxPoint x="420" y="510" as="sourcePoint" />
            <mxPoint x="470" y="460" as="targetPoint" />
          </mxGeometry>
        </mxCell>
      </root>
    </mxGraphModel>
  </diagram>
</mxfile>
